<?xml version="1.0" encoding="iso-8859-1"?>
<!-- Uploaded to: SVG Repo, www.svgrepo.com, Generator: SVG Repo Mixer Tools -->
<svg fill="#000000" version="1.1" id="Layer_1" xmlns="http://www.w3.org/2000/svg" xmlns:xlink="http://www.w3.org/1999/xlink" 
	 viewBox="0 0 512 512" xml:space="preserve">
<g>
	<g>
		<path d="M470.483,500.776L415.69,172.311c-0.731-4.406-4.539-7.338-9.007-7.338H105.318c-4.468,0-8.276,2.932-9.008,7.338
			L41.516,500.926c-0.446,2.649,0.303,5.572,2.042,7.623C45.289,510.6,47.84,512,50.524,512h410.952
			c2.684,0,5.235-1.474,6.965-3.525C470.18,506.424,470.93,503.425,470.483,500.776z M61.306,493.735l51.744-310.497h285.9
			l51.744,310.497H61.306z"/>
	</g>
</g>
<g>
	<g>
		<path d="M251.434,0c-40.284,0-73.058,32.775-73.058,73.058c0,40.284,32.774,73.058,73.058,73.058
			c40.284,0,73.058-32.774,73.058-73.058C324.492,32.775,291.717,0,251.434,0z M251.434,127.852
			c-30.215,0-54.794-24.579-54.794-54.794c0-30.215,24.579-54.794,54.794-54.794c30.215,0,54.794,24.579,54.794,54.794
			C306.228,103.273,281.649,127.852,251.434,127.852z"/>
	</g>
</g>
<g>
	<g>
		<path d="M251.434,45.661c-15.108,0-27.397,12.289-27.397,27.397c0,15.108,12.289,27.397,27.397,27.397
			c15.107,0,27.397-12.289,27.397-27.397C278.831,57.951,266.541,45.661,251.434,45.661z M251.434,82.19
			c-5.039,0-9.132-4.093-9.132-9.132c0-5.039,4.093-9.132,9.132-9.132c5.039,0,9.132,4.094,9.132,9.132
			C260.566,78.097,256.473,82.19,251.434,82.19z"/>
	</g>
</g>
<g>
	<g>
		<polygon points="268.985,281.41 244.137,281.41 200.567,319.304 208.622,281.41 189.7,281.41 170.167,375.016 189.078,375.016 
			195.57,343.945 206.74,334.666 226.657,375.016 251.378,375.016 223.223,320.098 		"/>
	</g>
</g>
<g>
	<g>
		<path d="M299.45,304.301c5.955-5.599,12.63-8.403,20.037-8.403c3.873,0,7.242,0.667,10.12,2.04
			c5.112,2.497,7.734,6.303,7.862,13.152h18.911c0.834-9.132-1.659-16.245-7.487-22.175c-5.826-5.93-14.586-8.887-26.282-8.887
			c-13.489,0-25.287,4.499-35.396,13.489c-10.109,8.99-16.748,20.936-19.919,35.836c-3.112,14.733-1.534,26.347,4.749,34.837
			c5.993,8.448,15.087,12.673,27.279,12.673c7.407,0,13.982-1.561,19.725-4.682c3.335-1.79,7.326-4.575,11.99-8.945l-0.502,11.781
			h12.74l10.483-50.227h-38.328l-3.304,15.981h21.288c-2.212,4.566-5.781,10.731-10.715,14.456
			c-4.93,3.724-10.619,5.496-17.065,5.496c-6.577,0-11.937-2.397-16.084-7.101c-4.136-4.702-5.021-12.735-2.649-24.057
			C289.314,318.327,293.497,309.9,299.45,304.301z"/>
	</g>
</g>
<g>
	<g>
		<rect x="122.569" y="429.81" width="273.968" height="18.265"/>
	</g>
</g>
</svg>